%TF.GenerationSoftware,KiCad,Pcbnew,9.0.5*%
%TF.CreationDate,2026-02-23T00:05:01+05:30*%
%TF.ProjectId,AVR_Controller_E168_E3,4156525f-436f-46e7-9472-6f6c6c65725f,rev?*%
%TF.SameCoordinates,Original*%
%TF.FileFunction,Soldermask,Top*%
%TF.FilePolarity,Negative*%
%FSLAX46Y46*%
G04 Gerber Fmt 4.6, Leading zero omitted, Abs format (unit mm)*
G04 Created by KiCad (PCBNEW 9.0.5) date 2026-02-23 00:05:01*
%MOMM*%
%LPD*%
G01*
G04 APERTURE LIST*
G04 Aperture macros list*
%AMRoundRect*
0 Rectangle with rounded corners*
0 $1 Rounding radius*
0 $2 $3 $4 $5 $6 $7 $8 $9 X,Y pos of 4 corners*
0 Add a 4 corners polygon primitive as box body*
4,1,4,$2,$3,$4,$5,$6,$7,$8,$9,$2,$3,0*
0 Add four circle primitives for the rounded corners*
1,1,$1+$1,$2,$3*
1,1,$1+$1,$4,$5*
1,1,$1+$1,$6,$7*
1,1,$1+$1,$8,$9*
0 Add four rect primitives between the rounded corners*
20,1,$1+$1,$2,$3,$4,$5,0*
20,1,$1+$1,$4,$5,$6,$7,0*
20,1,$1+$1,$6,$7,$8,$9,0*
20,1,$1+$1,$8,$9,$2,$3,0*%
G04 Aperture macros list end*
%ADD10C,2.000000*%
%ADD11R,2.000000X2.000000*%
%ADD12C,1.700000*%
%ADD13R,1.700000X1.700000*%
%ADD14R,1.905000X2.000000*%
%ADD15O,1.905000X2.000000*%
%ADD16RoundRect,0.150000X-0.875000X-0.150000X0.875000X-0.150000X0.875000X0.150000X-0.875000X0.150000X0*%
%ADD17C,1.600000*%
%ADD18R,1.050000X1.500000*%
%ADD19O,1.050000X1.500000*%
%ADD20R,3.500000X3.500000*%
%ADD21RoundRect,0.750000X-0.750000X-1.000000X0.750000X-1.000000X0.750000X1.000000X-0.750000X1.000000X0*%
%ADD22RoundRect,0.875000X-0.875000X-0.875000X0.875000X-0.875000X0.875000X0.875000X-0.875000X0.875000X0*%
%ADD23R,1.800000X1.800000*%
%ADD24C,1.800000*%
%ADD25C,1.500000*%
%ADD26RoundRect,0.250000X-0.550000X-0.550000X0.550000X-0.550000X0.550000X0.550000X-0.550000X0.550000X0*%
G04 APERTURE END LIST*
D10*
%TO.C,BZ1*%
X215600000Y-140500000D03*
D11*
X208000000Y-140500000D03*
%TD*%
D12*
%TO.C,J2*%
X166100000Y-114890000D03*
X166100000Y-112350000D03*
X166100000Y-109810000D03*
X166100000Y-107270000D03*
X166100000Y-104730000D03*
X166100000Y-102190000D03*
X166100000Y-99650000D03*
D13*
X166100000Y-97110000D03*
%TD*%
D12*
%TO.C,J4*%
X211000000Y-95300000D03*
X211000000Y-97840000D03*
X211000000Y-100380000D03*
X211000000Y-102920000D03*
X211000000Y-105460000D03*
D13*
X211000000Y-108000000D03*
%TD*%
D14*
%TO.C,U3*%
X190500000Y-72250000D03*
D15*
X193040000Y-72250000D03*
X195580000Y-72250000D03*
%TD*%
D16*
%TO.C,U2*%
X148100000Y-101920000D03*
X148100000Y-103190000D03*
X148100000Y-104460000D03*
X148100000Y-105730000D03*
X148100000Y-107000000D03*
X148100000Y-108270000D03*
X148100000Y-109540000D03*
X148100000Y-110810000D03*
X148100000Y-112080000D03*
X157400000Y-112080000D03*
X157400000Y-110810000D03*
X157400000Y-109540000D03*
X157400000Y-108270000D03*
X157400000Y-107000000D03*
X157400000Y-105730000D03*
X157400000Y-104460000D03*
X157400000Y-103190000D03*
X157400000Y-101920000D03*
%TD*%
D10*
%TO.C,SW2*%
X155250000Y-69500000D03*
X161750000Y-69500000D03*
X155250000Y-74000000D03*
X161750000Y-74000000D03*
%TD*%
D17*
%TO.C,R4*%
X198000000Y-129000000D03*
X208160000Y-129000000D03*
%TD*%
%TO.C,R3*%
X184000000Y-134750000D03*
X194160000Y-134750000D03*
%TD*%
%TO.C,R2*%
X182500000Y-128500000D03*
X172340000Y-128500000D03*
%TD*%
D18*
%TO.C,Q1*%
X198230000Y-134360000D03*
D19*
X199500000Y-134360000D03*
X200770000Y-134360000D03*
%TD*%
D13*
%TO.C,J6*%
X140100000Y-116270000D03*
D12*
X140100000Y-113730000D03*
X140100000Y-111190000D03*
X140100000Y-108650000D03*
X140100000Y-106110000D03*
X140100000Y-103570000D03*
X140100000Y-101030000D03*
X140100000Y-98490000D03*
%TD*%
D20*
%TO.C,J5*%
X149000000Y-72750000D03*
D21*
X143000000Y-72750000D03*
D22*
X146000000Y-77450000D03*
%TD*%
D10*
%TO.C,FB1*%
X173420000Y-71750000D03*
X178500000Y-71750000D03*
%TD*%
D23*
%TO.C,D2*%
X197000000Y-141000000D03*
D24*
X194460000Y-141000000D03*
%TD*%
D23*
%TO.C,D1*%
X166000000Y-128500000D03*
D24*
X168540000Y-128500000D03*
%TD*%
D17*
%TO.C,C8*%
X183500000Y-74750000D03*
X183500000Y-69750000D03*
%TD*%
%TO.C,C7*%
X167000000Y-74250000D03*
X167000000Y-69250000D03*
%TD*%
%TO.C,C4*%
X177500000Y-120000000D03*
X182500000Y-120000000D03*
%TD*%
%TO.C,C3*%
X173500000Y-108500000D03*
X173500000Y-103500000D03*
%TD*%
D25*
%TO.C,Y1*%
X175620000Y-113000000D03*
X180500000Y-113000000D03*
%TD*%
D10*
%TO.C,SW1*%
X186000000Y-81500000D03*
X192500000Y-81500000D03*
X186000000Y-86000000D03*
X192500000Y-86000000D03*
%TD*%
D26*
%TO.C,U1*%
X185880000Y-95420000D03*
D17*
X185880000Y-97960000D03*
X185880000Y-100500000D03*
X185880000Y-103040000D03*
X185880000Y-105580000D03*
X185880000Y-108120000D03*
X185880000Y-110660000D03*
X185880000Y-113200000D03*
X185880000Y-115740000D03*
X185880000Y-118280000D03*
X185880000Y-120820000D03*
X185880000Y-123360000D03*
X185880000Y-125900000D03*
X185880000Y-128440000D03*
X193500000Y-128440000D03*
X193500000Y-125900000D03*
X193500000Y-123360000D03*
X193500000Y-120820000D03*
X193500000Y-118280000D03*
X193500000Y-115740000D03*
X193500000Y-113200000D03*
X193500000Y-110660000D03*
X193500000Y-108120000D03*
X193500000Y-105580000D03*
X193500000Y-103040000D03*
X193500000Y-100500000D03*
X193500000Y-97960000D03*
X193500000Y-95420000D03*
%TD*%
%TO.C,C6*%
X178500000Y-106500000D03*
X183500000Y-106500000D03*
%TD*%
%TO.C,R1*%
X184500000Y-90500000D03*
X194660000Y-90500000D03*
%TD*%
%TO.C,C2*%
X204500000Y-100000000D03*
X204500000Y-105000000D03*
%TD*%
D13*
%TO.C,J1*%
X198820000Y-119730000D03*
D12*
X201360000Y-119730000D03*
X198820000Y-122270000D03*
X201360000Y-122270000D03*
X198820000Y-124810000D03*
X201360000Y-124810000D03*
%TD*%
D13*
%TO.C,J3*%
X199000000Y-114040000D03*
D12*
X199000000Y-111500000D03*
X199000000Y-108960000D03*
X199000000Y-106420000D03*
X199000000Y-103880000D03*
X199000000Y-101340000D03*
X199000000Y-98800000D03*
X199000000Y-96260000D03*
%TD*%
M02*
