M48
; DRILL file {KiCad 9.0.5} date 2026-02-23T00:04:59+0530
; FORMAT={-:-/ absolute / metric / decimal}
; #@! TF.CreationDate,2026-02-23T00:04:59+05:30
; #@! TF.GenerationSoftware,Kicad,Pcbnew,9.0.5
; #@! TF.FileFunction,Plated,1,2,PTH
FMAT,2
METRIC
; #@! TA.AperFunction,Plated,PTH,ViaDrill
T1C0.300
; #@! TA.AperFunction,Plated,PTH,ComponentDrill
T2C0.750
; #@! TA.AperFunction,Plated,PTH,ComponentDrill
T3C0.800
; #@! TA.AperFunction,Plated,PTH,ComponentDrill
T4C0.900
; #@! TA.AperFunction,Plated,PTH,ComponentDrill
T5C1.000
; #@! TA.AperFunction,Plated,PTH,ComponentDrill
T6C1.100
%
G90
G05
T1
X185.5Y-92.25
X188.5Y-111.5
X190.53Y-113.97
X192.0Y-114.99
X195.5Y-124.071
X196.5Y-108.0
X205.018Y-108.012
T2
X198.23Y-134.36
X199.5Y-134.36
X200.77Y-134.36
T3
X167.0Y-69.25
X167.0Y-74.25
X172.34Y-128.5
X173.42Y-71.75
X173.5Y-103.5
X173.5Y-108.5
X175.62Y-113.0
X177.5Y-120.0
X178.5Y-71.75
X178.5Y-106.5
X180.5Y-113.0
X182.5Y-120.0
X182.5Y-128.5
X183.5Y-69.75
X183.5Y-74.75
X183.5Y-106.5
X184.0Y-134.75
X184.5Y-90.5
X185.88Y-95.42
X185.88Y-97.96
X185.88Y-100.5
X185.88Y-103.04
X185.88Y-105.58
X185.88Y-108.12
X185.88Y-110.66
X185.88Y-113.2
X185.88Y-115.74
X185.88Y-118.28
X185.88Y-120.82
X185.88Y-123.36
X185.88Y-125.9
X185.88Y-128.44
X193.5Y-95.42
X193.5Y-97.96
X193.5Y-100.5
X193.5Y-103.04
X193.5Y-105.58
X193.5Y-108.12
X193.5Y-110.66
X193.5Y-113.2
X193.5Y-115.74
X193.5Y-118.28
X193.5Y-120.82
X193.5Y-123.36
X193.5Y-125.9
X193.5Y-128.44
X194.16Y-134.75
X194.66Y-90.5
X198.0Y-129.0
X204.5Y-100.0
X204.5Y-105.0
X208.16Y-129.0
T4
X166.0Y-128.5
X168.54Y-128.5
X194.46Y-141.0
X197.0Y-141.0
T5
X140.1Y-98.49
X140.1Y-101.03
X140.1Y-103.57
X140.1Y-106.11
X140.1Y-108.65
X140.1Y-111.19
X140.1Y-113.73
X140.1Y-116.27
X166.1Y-97.11
X166.1Y-99.65
X166.1Y-102.19
X166.1Y-104.73
X166.1Y-107.27
X166.1Y-109.81
X166.1Y-112.35
X166.1Y-114.89
X198.82Y-119.73
X198.82Y-122.27
X198.82Y-124.81
X199.0Y-96.26
X199.0Y-98.8
X199.0Y-101.34
X199.0Y-103.88
X199.0Y-106.42
X199.0Y-108.96
X199.0Y-111.5
X199.0Y-114.04
X201.36Y-119.73
X201.36Y-122.27
X201.36Y-124.81
X208.0Y-140.5
X211.0Y-95.3
X211.0Y-97.84
X211.0Y-100.38
X211.0Y-102.92
X211.0Y-105.46
X211.0Y-108.0
X215.6Y-140.5
T6
X155.25Y-69.5
X155.25Y-74.0
X161.75Y-69.5
X161.75Y-74.0
X186.0Y-81.5
X186.0Y-86.0
X190.5Y-72.25
X192.5Y-81.5
X192.5Y-86.0
X193.04Y-72.25
X195.58Y-72.25
T5
G00X143.0Y-71.75
M15
G01X143.0Y-73.75
M16
G05
G00X145.0Y-77.45
M15
G01X147.0Y-77.45
M16
G05
G00X149.0Y-71.75
M15
G01X149.0Y-73.75
M16
G05
M30
